<svg viewBox="0 0 263.088 76" xmlns="http://www.w3.org/2000/svg"><path d="m25.305 23.373c3.721 0 7.303 1.414 10.016 3.957h7.592c-2.356-3.838-5.899-6.801-10.094-8.439-4.196-1.639-8.808-1.863-13.142-.638-4.335 1.224-8.149 3.83-10.868 7.421-2.716 3.591-4.185 7.971-4.185 12.474s1.469 8.883 4.185 12.474c2.719 3.591 6.533 6.197 10.868 7.421 4.334 1.224 8.946 1 13.142-.638 4.195-1.639 7.738-4.602 10.094-8.439h-7.592c-1.761 1.631-3.899 2.806-6.22 3.424-2.32.618-4.758.66-7.1.122s-4.516-1.639-6.334-3.208c-1.822-1.569-3.23-3.559-4.103-5.796-.877-2.237-1.194-4.654-.923-7.041s1.123-4.672 2.477-6.656c1.355-1.985 3.172-3.608 5.297-4.73 2.124-1.122 4.487-1.708 6.89-1.708z" fill="#050d17"/><path d="m73.462 30.787c-2.782-2.253-6.258-3.475-9.838-3.457-2.421-.008-4.81.543-6.984 1.609s-4.074 2.618-5.55 4.537c-1.476 1.918-2.491 4.152-2.965 6.526-.475 2.374-.393 4.825.235 7.164.627 2.338 1.786 4.501 3.382 6.319 1.597 1.818 3.593 3.244 5.832 4.166 2.238.923 4.66 1.317 7.075 1.152s4.76-.884 6.853-2.102v-7.735c-1.403 1.879-3.429 3.198-5.715 3.72s-4.683.214-6.762-.87c-2.078-1.084-3.707-2.872-4.588-5.046-.88-2.173-.959-4.588-.221-6.814s2.242-4.117 4.249-5.335c2.003-1.217 4.375-1.681 6.69-1.309 2.316.373 4.423 1.557 5.945 3.34 1.522 1.784 2.359 4.052 2.362 6.397v7.877h5.917v-23.596h-5.917z" fill="#050d17"/><path d="m79.379 52.887h-5.917v5.906h5.917z" fill="#eb5c01"/><g fill="#050d17"><path d="m91.177 27.33h-5.917v31.492h5.917z"/><path d="m148.28 25.333h-5.917v33.46h5.917z"/><path d="m114.81 27.33c-1.679-.004-3.339.35-4.869 1.038-1.531.689-2.897 1.695-4.007 2.954-1.101-1.261-2.46-2.27-3.985-2.959s-3.181-1.042-4.855-1.033c-1.348-.013-2.689.216-3.956.677v6.737c1.08-.988 2.492-1.536 3.956-1.533 1.567.009 3.066.636 4.174 1.744 1.107 1.107 1.734 2.607 1.743 4.173v19.676h5.882v-19.676c0-1.569.623-3.074 1.733-4.184 1.109-1.11 2.614-1.733 4.184-1.733 1.569 0 3.074.623 4.184 1.733 1.109 1.11 1.733 2.615 1.733 4.184v19.676h5.881v-19.676c0-3.129-1.243-6.13-3.456-8.343-2.213-2.212-5.214-3.455-8.342-3.455z"/><path d="m207.307 27.33h-5.917v31.492h5.917z"/><path d="m195.509 27.33h-5.917v31.492h5.917z"/><path d="m213.224 27.33c-1.349-.013-2.689.216-3.957.677v6.737c1.08-.988 2.493-1.536 3.957-1.533 1.563.009 3.059.637 4.161 1.746 1.102 1.108 1.72 2.608 1.72 4.171v19.676h5.917v-19.676c0-3.129-1.243-6.13-3.455-8.343-2.213-2.212-5.214-3.455-8.343-3.455z"/><path d="m236.856 17.492h-5.917v41.333h5.917z"/><path d="m171.876 27.33c-1.337-.016-2.666.213-3.921.677v6.737c1.066-.99 2.467-1.537 3.921-1.533.777 0 1.547.153 2.265.45.717.298 1.37.734 1.919 1.283.55.55.986 1.202 1.283 1.92s.45 1.487.45 2.264v19.676h5.917v-19.676c-.009-3.132-1.26-6.133-3.479-8.345-2.218-2.211-5.223-3.453-8.355-3.453z"/><path d="m132.525 17.492v5.881h27.553v35.431h5.881v-41.312z"/><path d="m242.096 42.942 14.4-15.612h-8.091l-9.588 10.479v10.159l11.192 10.836h8.341z"/></g><path d="m190.496 16.972-4.184 4.184 4.177 4.176 4.183-4.184z" fill="#eb5c01"/><path d="m198.353 10.79-4.445 2.567 2.559 4.432 4.445-2.566z" fill="#eb5c01"/><path d="m192.018 4.737-4.166 1.116 1.121 4.184 4.166-1.117z" fill="#eb5c01"/></svg>